<mxfile host="app.diagrams.net" modified="2022-08-16T12:32:58.586Z" agent="5.0 (Macintosh; Intel Mac OS X 10_15_7) AppleWebKit/605.1.15 (KHTML, like Gecko) Version/15.6 Safari/605.1.15" etag="5dBLuKiCrjNbJFdYlx6U" version="20.2.4" type="github">
  <diagram id="rh3HY5zMFM4nXo8BQPl4" name="Sayfa -1">
    <mxGraphModel dx="946" dy="548" grid="1" gridSize="10" guides="1" tooltips="1" connect="1" arrows="1" fold="1" page="1" pageScale="1" pageWidth="827" pageHeight="1169" math="0" shadow="0">
      <root>
        <mxCell id="0" />
        <mxCell id="1" parent="0" />
        <mxCell id="75BE385fCWz-DWUF87CA-1" value="&lt;b&gt;ÜNİVERSİTE&lt;/b&gt;" style="rounded=0;whiteSpace=wrap;html=1;" parent="1" vertex="1">
          <mxGeometry x="380" y="20" width="120" height="60" as="geometry" />
        </mxCell>
        <mxCell id="75BE385fCWz-DWUF87CA-2" value="&lt;b&gt;SINIFLIK&lt;/b&gt;" style="rounded=0;whiteSpace=wrap;html=1;" parent="1" vertex="1">
          <mxGeometry x="70" y="180" width="120" height="60" as="geometry" />
        </mxCell>
        <mxCell id="75BE385fCWz-DWUF87CA-3" value="&lt;b&gt;ÇALIŞAN&lt;/b&gt;" style="rounded=0;whiteSpace=wrap;html=1;" parent="1" vertex="1">
          <mxGeometry x="280" y="180" width="120" height="60" as="geometry" />
        </mxCell>
        <mxCell id="75BE385fCWz-DWUF87CA-4" value="&lt;b&gt;OFİS&lt;/b&gt;" style="rounded=0;whiteSpace=wrap;html=1;" parent="1" vertex="1">
          <mxGeometry x="480" y="180" width="120" height="60" as="geometry" />
        </mxCell>
        <mxCell id="75BE385fCWz-DWUF87CA-5" value="&lt;b&gt;DEPARTMAN&lt;/b&gt;" style="rounded=0;whiteSpace=wrap;html=1;" parent="1" vertex="1">
          <mxGeometry x="700" y="180" width="120" height="60" as="geometry" />
        </mxCell>
        <mxCell id="75BE385fCWz-DWUF87CA-6" value="" style="endArrow=none;html=1;rounded=0;exitX=0.425;exitY=0;exitDx=0;exitDy=0;exitPerimeter=0;entryX=0;entryY=0.5;entryDx=0;entryDy=0;" parent="1" source="75BE385fCWz-DWUF87CA-2" target="75BE385fCWz-DWUF87CA-1" edge="1">
          <mxGeometry width="50" height="50" relative="1" as="geometry">
            <mxPoint x="150" y="170" as="sourcePoint" />
            <mxPoint x="350" y="50" as="targetPoint" />
            <Array as="points">
              <mxPoint x="120" y="50" />
            </Array>
          </mxGeometry>
        </mxCell>
        <mxCell id="75BE385fCWz-DWUF87CA-8" value="" style="endArrow=none;html=1;rounded=0;entryX=0.083;entryY=1.05;entryDx=0;entryDy=0;entryPerimeter=0;exitX=0.908;exitY=-0.067;exitDx=0;exitDy=0;exitPerimeter=0;" parent="1" source="75BE385fCWz-DWUF87CA-3" target="75BE385fCWz-DWUF87CA-1" edge="1">
          <mxGeometry width="50" height="50" relative="1" as="geometry">
            <mxPoint x="380" y="180" as="sourcePoint" />
            <mxPoint x="380" y="110" as="targetPoint" />
          </mxGeometry>
        </mxCell>
        <mxCell id="75BE385fCWz-DWUF87CA-9" value="" style="endArrow=none;html=1;rounded=0;entryX=0.083;entryY=1.05;entryDx=0;entryDy=0;entryPerimeter=0;" parent="1" edge="1">
          <mxGeometry width="50" height="50" relative="1" as="geometry">
            <mxPoint x="490.04" y="180" as="sourcePoint" />
            <mxPoint x="490.00000000000006" y="83" as="targetPoint" />
          </mxGeometry>
        </mxCell>
        <mxCell id="75BE385fCWz-DWUF87CA-10" value="" style="endArrow=none;html=1;rounded=0;exitX=0.15;exitY=1.033;exitDx=0;exitDy=0;exitPerimeter=0;" parent="1" source="A9rSIT-hlaC3N2dCqHLU-18" edge="1">
          <mxGeometry width="50" height="50" relative="1" as="geometry">
            <mxPoint x="690" y="180" as="sourcePoint" />
            <mxPoint x="500" y="50" as="targetPoint" />
            <Array as="points">
              <mxPoint x="740" y="50" />
            </Array>
          </mxGeometry>
        </mxCell>
        <mxCell id="75BE385fCWz-DWUF87CA-11" value="&lt;b&gt;PROFESÖR&lt;/b&gt;" style="rounded=0;whiteSpace=wrap;html=1;" parent="1" vertex="1">
          <mxGeometry x="200" y="330" width="120" height="60" as="geometry" />
        </mxCell>
        <mxCell id="75BE385fCWz-DWUF87CA-12" value="&lt;b&gt;MEMUR&lt;/b&gt;" style="rounded=0;whiteSpace=wrap;html=1;" parent="1" vertex="1">
          <mxGeometry x="360" y="330" width="120" height="60" as="geometry" />
        </mxCell>
        <mxCell id="9Uijk2api3qXPBsyQA4G-1" value="" style="endArrow=none;html=1;rounded=0;" parent="1" edge="1">
          <mxGeometry width="50" height="50" relative="1" as="geometry">
            <mxPoint x="430" y="330" as="sourcePoint" />
            <mxPoint x="360" y="280" as="targetPoint" />
            <Array as="points">
              <mxPoint x="430" y="280" />
              <mxPoint x="360" y="280" />
              <mxPoint x="350" y="280" />
            </Array>
          </mxGeometry>
        </mxCell>
        <mxCell id="9Uijk2api3qXPBsyQA4G-3" value="" style="triangle;whiteSpace=wrap;html=1;rotation=-90;" parent="1" vertex="1">
          <mxGeometry x="327.5" y="232.5" width="25" height="30" as="geometry" />
        </mxCell>
        <mxCell id="9Uijk2api3qXPBsyQA4G-6" value="" style="endArrow=none;html=1;rounded=0;" parent="1" edge="1">
          <mxGeometry width="50" height="50" relative="1" as="geometry">
            <mxPoint x="250" y="330" as="sourcePoint" />
            <mxPoint x="330" y="280" as="targetPoint" />
            <Array as="points">
              <mxPoint x="250" y="310" />
              <mxPoint x="250" y="280" />
            </Array>
          </mxGeometry>
        </mxCell>
        <mxCell id="A9rSIT-hlaC3N2dCqHLU-3" value="" style="line;strokeWidth=2;direction=south;html=1;" parent="1" vertex="1">
          <mxGeometry x="330" y="260" width="10" height="20" as="geometry" />
        </mxCell>
        <mxCell id="A9rSIT-hlaC3N2dCqHLU-4" value="" style="line;strokeWidth=2;direction=south;html=1;" parent="1" vertex="1">
          <mxGeometry x="340" y="260" width="10" height="20" as="geometry" />
        </mxCell>
        <mxCell id="A9rSIT-hlaC3N2dCqHLU-12" value="" style="endArrow=none;html=1;rounded=0;fontSize=13;entryX=0.75;entryY=0;entryDx=0;entryDy=0;" parent="1" target="A9rSIT-hlaC3N2dCqHLU-23" edge="1">
          <mxGeometry width="50" height="50" relative="1" as="geometry">
            <mxPoint x="600" y="210" as="sourcePoint" />
            <mxPoint x="670" y="209.5" as="targetPoint" />
          </mxGeometry>
        </mxCell>
        <mxCell id="A9rSIT-hlaC3N2dCqHLU-14" value="has" style="text;html=1;strokeColor=none;fillColor=none;align=center;verticalAlign=middle;whiteSpace=wrap;rounded=0;fontSize=13;" parent="1" vertex="1">
          <mxGeometry x="230" y="20" width="60" height="30" as="geometry" />
        </mxCell>
        <mxCell id="A9rSIT-hlaC3N2dCqHLU-15" value="1..*" style="text;html=1;strokeColor=none;fillColor=none;align=center;verticalAlign=middle;whiteSpace=wrap;rounded=0;fontSize=13;" parent="1" vertex="1">
          <mxGeometry x="110" y="150" width="60" height="30" as="geometry" />
        </mxCell>
        <mxCell id="A9rSIT-hlaC3N2dCqHLU-16" value="1..*" style="text;html=1;strokeColor=none;fillColor=none;align=center;verticalAlign=middle;whiteSpace=wrap;rounded=0;fontSize=13;" parent="1" vertex="1">
          <mxGeometry x="340" y="150" width="60" height="30" as="geometry" />
        </mxCell>
        <mxCell id="A9rSIT-hlaC3N2dCqHLU-17" value="1..*" style="text;html=1;strokeColor=none;fillColor=none;align=center;verticalAlign=middle;whiteSpace=wrap;rounded=0;fontSize=13;" parent="1" vertex="1">
          <mxGeometry x="480" y="150" width="60" height="30" as="geometry" />
        </mxCell>
        <mxCell id="A9rSIT-hlaC3N2dCqHLU-18" value="1..*" style="text;html=1;strokeColor=none;fillColor=none;align=center;verticalAlign=middle;whiteSpace=wrap;rounded=0;fontSize=13;" parent="1" vertex="1">
          <mxGeometry x="730" y="150" width="60" height="30" as="geometry" />
        </mxCell>
        <mxCell id="A9rSIT-hlaC3N2dCqHLU-19" value="has" style="text;html=1;strokeColor=none;fillColor=none;align=center;verticalAlign=middle;whiteSpace=wrap;rounded=0;fontSize=13;" parent="1" vertex="1">
          <mxGeometry x="600" y="20" width="60" height="30" as="geometry" />
        </mxCell>
        <mxCell id="A9rSIT-hlaC3N2dCqHLU-20" value="has" style="text;html=1;strokeColor=none;fillColor=none;align=center;verticalAlign=middle;whiteSpace=wrap;rounded=0;fontSize=13;" parent="1" vertex="1">
          <mxGeometry x="490" y="100" width="60" height="30" as="geometry" />
        </mxCell>
        <mxCell id="A9rSIT-hlaC3N2dCqHLU-21" value="has" style="text;html=1;strokeColor=none;fillColor=none;align=center;verticalAlign=middle;whiteSpace=wrap;rounded=0;fontSize=13;" parent="1" vertex="1">
          <mxGeometry x="330" y="100" width="60" height="30" as="geometry" />
        </mxCell>
        <mxCell id="A9rSIT-hlaC3N2dCqHLU-23" value="1..*" style="text;html=1;strokeColor=none;fillColor=none;align=center;verticalAlign=middle;whiteSpace=wrap;rounded=0;fontSize=13;" parent="1" vertex="1">
          <mxGeometry x="655" y="210" width="60" height="30" as="geometry" />
        </mxCell>
        <mxCell id="A9rSIT-hlaC3N2dCqHLU-24" value="" style="rhombus;whiteSpace=wrap;html=1;fontSize=13;" parent="1" vertex="1">
          <mxGeometry x="670" y="200" width="30" height="20" as="geometry" />
        </mxCell>
        <mxCell id="A9rSIT-hlaC3N2dCqHLU-25" value="1..*" style="text;html=1;strokeColor=none;fillColor=none;align=center;verticalAlign=middle;whiteSpace=wrap;rounded=0;fontSize=13;" parent="1" vertex="1">
          <mxGeometry x="590" y="210" width="60" height="30" as="geometry" />
        </mxCell>
        <mxCell id="A9rSIT-hlaC3N2dCqHLU-26" value="" style="endArrow=none;html=1;rounded=0;fontSize=13;entryX=0;entryY=0.5;entryDx=0;entryDy=0;" parent="1" target="75BE385fCWz-DWUF87CA-4" edge="1">
          <mxGeometry width="50" height="50" relative="1" as="geometry">
            <mxPoint x="400" y="210" as="sourcePoint" />
            <mxPoint x="470" y="210" as="targetPoint" />
          </mxGeometry>
        </mxCell>
        <mxCell id="A9rSIT-hlaC3N2dCqHLU-27" value="working" style="text;html=1;strokeColor=none;fillColor=none;align=center;verticalAlign=middle;whiteSpace=wrap;rounded=0;fontSize=13;" parent="1" vertex="1">
          <mxGeometry x="410" y="180" width="60" height="30" as="geometry" />
        </mxCell>
        <mxCell id="A9rSIT-hlaC3N2dCqHLU-28" value="1" style="text;html=1;strokeColor=none;fillColor=none;align=center;verticalAlign=middle;whiteSpace=wrap;rounded=0;fontSize=13;" parent="1" vertex="1">
          <mxGeometry x="380" y="202.5" width="60" height="30" as="geometry" />
        </mxCell>
        <mxCell id="A9rSIT-hlaC3N2dCqHLU-29" value="1" style="text;html=1;strokeColor=none;fillColor=none;align=center;verticalAlign=middle;whiteSpace=wrap;rounded=0;fontSize=13;" parent="1" vertex="1">
          <mxGeometry x="440" y="202.5" width="60" height="30" as="geometry" />
        </mxCell>
      </root>
    </mxGraphModel>
  </diagram>
</mxfile>
